#!OML:ASF I:\Random Stuff\random\construction\7_22_03\Session 2\subj1.ASF
:FULLY-SPECIFIED
:DEGREES
1283
root 4.84794 18.5366 -10.5128 6.8578 10.8259 -4.47707
lowerback 8.4445 2.44609 6.30236
upperback -0.891556 4.00781 1.71357
thorax -5.36965 1.81473 -2.24878
lowerneck -25.5501 4.30126 6.05143
upperneck 25.4061 3.28073 1.26707
head 12.8331 2.24153 0.0929619
rclavicle 4.07509e-014 3.77691e-014
rhumerus -42.6133 16.7938 -67.4419
rradius 61.3626
rwrist -6.08624
rhand -38.1073 26.6991
rfingers 7.12502
rthumb -11.1427 -2.98502
lclavicle 4.07509e-014 3.77691e-014
lhumerus -39.3342 -28.7825 98.1626
lradius 56.8036
lwrist 32.1763
lhand -16.4317 -293.945
lfingers 7.12502
lthumb -170.216 -275.808
rfemur 0.75108 -5.60403 20.5641
rtibia -7.95139e-015
rfoot -1.78628 -17.9422
rtoes -56.9703
lfemur -14.4184 -17.0662 -2.75202
ltibia 18.5822
lfoot -14.6909 3.12737
ltoes -62.6757
1284
root 4.8753 18.5336 -10.4735 6.58757 10.9176 -4.37415
lowerback 7.98895 2.56171 6.20768
upperback -1.13741 4.12443 1.63126
thorax -5.36162 1.87041 -2.27714
lowerneck -25.1917 4.19079 6.03993
upperneck 25.5751 3.24746 0.987723
head 12.8339 2.19043 -0.0240749
rclavicle 3.48867e-014 2.06736e-014
rhumerus -43.1853 16.2414 -67.4326
rradius 60.9901
rwrist -5.78279
rhand -37.772 26.5855
rfingers 7.12502
rthumb -10.8193 -3.11581
lclavicle 3.48867e-014 2.06736e-014
lhumerus -38.5798 -27.0762 97.1103
lradius 53.2035
lwrist 32.2937
lhand -16.183 -294.056
lfingers 7.12502
lthumb -169.976 -275.686
rfemur 1.33882 -5.71235 20.338
rtibia 1.27222e-014
rfoot -2.36988 -17.9747
rtoes -56.5258
lfemur -13.9326 -17.0996 -3.08231
ltibia 18.5275
lfoot -14.8244 2.95049
ltoes -62.7875
1285
root 4.90629 18.5286 -10.4323 6.26279 10.9988 -4.26548
lowerback 7.57791 2.6534 6.17187
upperback -1.34017 4.21526 1.52226
thorax -5.32902 1.91274 -2.36307
lowerneck -24.8067 4.11418 5.93419
upperneck 25.6122 3.24355 0.898788
head 12.7714 2.16787 -0.0486023
rclavicle 5.58585e-014 -2.38542e-015
rhumerus -43.7007 15.6689 -67.4345
rradius 60.6083
rwrist -5.42271
rhand -37.4908 26.5199
rfingers 7.12502
rthumb -10.5481 -3.19538
lclavicle 5.58585e-014 -2.38542e-015
lhumerus -37.7867 -25.1433 95.896
lradius 49.5995
lwrist 32.3308
lhand -16.6672 -294.14
lfingers 7.12502
lthumb -170.444 -275.623
rfemur 1.98602 -5.80876 20.0818
rtibia 9.54166e-015
rfoot -2.93538 -17.9863
rtoes -56.0129
lfemur -13.3988 -17.1129 -3.45386
ltibia 18.5088
lfoot -14.979 2.7409
ltoes -62.7883
1286
root 4.94364 18.524 -10.3854 5.86557 10.9986 -4.14026
lowerback 7.16962 2.76526 6.19112
upperback -1.47672 4.3332 1.38329
thorax -5.21919 1.97003 -2.51026
lowerneck -24.717 3.95187 5.44299
upperneck 25.8545 3.09292 1.29829
head 12.8292 2.11432 0.160153
rclavicle -9.34288e-015 3.4191e-014
rhumerus -44.1614 15.0305 -67.3952
rradius 60.2253
rwrist -4.98045
rhand -37.2184 26.4918
rfingers 7.12502
rthumb -10.2854 -3.23669
lclavicle -9.34288e-015 3.4191e-014
lhumerus -36.896 -22.8986 94.5034
lradius 45.9037
lwrist 32.0531
lhand -18.3123 -294.519
lfingers 7.12502
lthumb -172.031 -275.311
rfemur 2.72628 -5.82262 19.7655
rtibia 1.11319e-014
rfoot -3.52857 -18.0085
rtoes -55.4748
lfemur -12.7709 -17.3979 -3.90054
ltibia 18.5461
lfoot -15.0689 2.92264
ltoes -62.7018
1287
root 4.96944 18.5202 -10.3529 5.57137 11.1078 -3.91022
lowerback 6.86893 2.8379 6.01471
upperback -1.66371 4.39305 1.24281
thorax -5.24145 1.9993 -2.5524
lowerneck -24.7029 3.80472 5.13307
upperneck 26.1534 2.95307 1.4753
head 12.9345 2.05251 0.258161
rclavicle -2.45499e-014 -5.96354e-015
rhumerus -44.6393 14.4717 -67.3344
rradius 59.9447
rwrist -4.53259
rhand -36.9077 26.3572
rfingers 7.12502
rthumb -9.98563 -3.38593
lclavicle -2.45499e-014 -5.96354e-015
lhumerus -35.982 -20.4156 92.9786
lradius 42.2382
lwrist 31.5706
lhand -18.4272 -294.416
lfingers 7.12502
lthumb -172.142 -275.418
rfemur 3.36988 -5.9506 19.4053
rtibia 2.06736e-014
rfoot -4.11418 -18.0359
rtoes -55.0192
lfemur -12.356 -17.4927 -4.37604
ltibia 18.6564
lfoot -15.0442 2.90661
ltoes -62.6664
1288
root 4.99622 18.5123 -10.3207 5.21776 11.1568 -3.6673
lowerback 6.65153 2.9041 5.82264
upperback -1.81282 4.44848 1.10931
thorax -5.27307 2.02739 -2.58175
lowerneck -24.635 3.73645 5.09841
upperneck 26.3516 2.91949 1.33549
head 13.002 2.01821 0.205158
rclavicle 7.67806e-015 2.70347e-014
rhumerus -45.0023 13.9968 -67.2607
rradius 59.6173
rwrist -4.09276
rhand -36.5094 26.2739
rfingers 7.12502
rthumb -9.60133 -3.48729
lclavicle 7.67806e-015 2.70347e-014
lhumerus -35.1614 -17.7694 91.366
lradius 38.853
lwrist 31.0939
lhand -18.5658 -294.474
lfingers 7.12502
lthumb -172.276 -275.365
rfemur 4.07264 -6.01443 18.9993
rtibia 7.95139e-015
rfoot -4.73728 -18.0477
rtoes -54.4353
lfemur -11.8754 -17.6248 -4.89437
ltibia 18.8393
lfoot -15.1759 2.88546
ltoes -62.6277
1289
root 5.01961 18.5018 -10.2909 4.81725 11.2308 -3.51204
lowerback 6.4788 2.92544 5.71246
upperback -1.93071 4.45483 1.00171
thorax -5.29758 2.0298 -2.62632
lowerneck -24.516 3.69253 4.95576
upperneck 26.4827 2.90398 1.39846
head 13.0271 2.00862 0.250129
rclavicle 6.95498e-014 1.19271e-014
rhumerus -45.2008 13.5469 -67.1882
rradius 59.2064
rwrist -3.63104
rhand -36.0944 26.2751
rfingers 7.12502
rthumb -9.20088 -3.50417
lclavicle 6.95498e-014 1.19271e-014
lhumerus -34.4916 -14.9302 89.6205
lradius 35.7963
lwrist 30.5494
lhand -18.7755 -294.196
lfingers 7.12502
lthumb -172.478 -275.651
rfemur 4.79673 -6.08938 18.6853
rtibia -6.36111e-015
rfoot -5.44518 -18.0124
rtoes -53.5363
lfemur -11.4192 -17.3772 -5.30998
ltibia 19.0745
lfoot -15.3684 2.41661
ltoes -62.5341
1290
root 5.04294 18.4903 -10.2637 4.40676 11.3335 -3.37693
lowerback 6.31394 2.90594 5.62214
upperback -2.01211 4.40843 0.91239
thorax -5.29254 2.00741 -2.65708
lowerneck -24.34 3.6556 4.73143
upperneck 26.4902 2.89714 1.58085
head 12.9867 2.00947 0.353643
rclavicle 1.31198e-014 1.51076e-014
rhumerus -45.3281 13.167 -67.1298
rradius 58.8353
rwrist -3.24778
rhand -35.7343 26.1784
rfingers 7.12502
rthumb -8.85341 -3.61589
lclavicle 1.31198e-014 1.51076e-014
lhumerus -33.9309 -11.9618 87.7953
lradius 32.9587
lwrist 29.8715
lhand -18.8989 -293.799
lfingers 7.12502
lthumb -172.597 -276.051
rfemur 5.50543 -6.18672 18.401
rtibia 7.95139e-015
rfoot -6.05123 -17.9796
rtoes -52.8031
lfemur -11.0223 -17.0547 -5.70273
ltibia 19.3843
lfoot -15.5888 1.90618
ltoes -62.5154
1291
root 5.06642 18.4777 -10.2376 4.02469 11.3782 -3.26739
lowerback 6.1606 2.90117 5.53307
upperback -2.07007 4.38189 0.8255
thorax -5.26776 1.99586 -2.68781
lowerneck -24.2889 3.62575 4.60413
upperneck 26.497 2.88121 1.671
head 12.9746 2.00279 0.405917
rclavicle 2.67117e-015 -5.1684e-015
rhumerus -45.4153 12.7975 -67.098
rradius 58.4856
rwrist -2.97931
rhand -35.4241 26.1155
rfingers 7.12502
rthumb -8.55404 -3.69125
lclavicle 2.67117e-015 -5.1684e-015
lhumerus -33.4664 -8.94858 85.9181
lradius 30.3727
lwrist 29.0985
lhand -18.9052 -293.546
lfingers 7.12502
lthumb -172.603 -276.305
rfemur 6.1688 -6.22138 18.1419
rtibia 4.77083e-015
rfoot -6.71334 -17.934
rtoes -51.9512
lfemur -10.6685 -16.8426 -6.06278
ltibia 19.7508
lfoot -15.8984 1.57253
ltoes -62.5949
1292
root 5.08498 18.464 -10.2158 3.71691 11.3764 -3.20652
lowerback 5.99528 2.90981 5.44982
upperback -2.14018 4.37341 0.731286
thorax -5.24646 1.99263 -2.73071
lowerneck -24.2905 3.60826 4.60685
upperneck 26.5236 2.84804 1.69514
head 12.9851 1.99277 0.409364
rclavicle 1.2598e-014 -1.98785e-016
rhumerus -45.4737 12.4145 -67.1037
rradius 58.1371
rwrist -2.73743
rhand -35.1339 26.235
rfingers 7.12502
rthumb -8.27403 -3.58298
lclavicle 1.2598e-014 -1.98785e-016
lhumerus -33.1451 -6.07482 84.0027
lradius 28.1201
lwrist 28.3326
lhand -18.9107 -293.287
lfingers 7.12502
lthumb -172.609 -276.564
rfemur 6.7015 -6.20706 17.954
rtibia 6.36111e-015
rfoot -7.43514 -17.8544
rtoes -50.8235
lfemur -10.4119 -16.5379 -6.31411
ltibia 20.1177
lfoot -16.1843 1.20198
ltoes -62.6435
1293
root 5.10064 18.4501 -10.1989 3.47691 11.3606 -3.17774
lowerback 5.75696 2.89475 5.3502
upperback -2.20939 4.32999 0.686257
thorax -5.1905 1.97478 -2.70575
lowerneck -24.1932 3.61555 4.53352
upperneck 26.4782 2.86919 1.77798
head 12.9445 2.00598 0.454891
rclavicle -1.08151e-014 -5.36719e-015
rhumerus -45.5003 12.2026 -67.085
rradius 57.8911
rwrist -2.54722
rhand -34.8062 26.3005
rfingers 7.12502
rthumb -7.95775 -3.52973
lclavicle -1.08151e-014 -5.36719e-015
lhumerus -33.0431 -3.79415 82.3269
lradius 26.3289
lwrist 28.2346
lhand -18.8277 -292.886
lfingers 7.12502
lthumb -172.529 -276.962
rfemur 7.08221 -6.17998 17.8404
rtibia 2.70347e-014
rfoot -7.8656 -17.8655
rtoes -50.2228
lfemur -10.2417 -16.2336 -6.47724
ltibia 20.4533
lfoot -16.3891 0.861525
ltoes -62.5695
1294
root 5.11801 18.4409 -10.1828 3.25745 11.312 -3.21886
lowerback 5.4882 2.88475 5.31929
upperback -2.2629 4.29891 0.689704
thorax -5.09869 1.96294 -2.66734
lowerneck -24.0776 3.62822 4.43425
upperneck 26.4105 2.93352 1.78453
head 12.8918 2.02416 0.482015
rclavicle 3.46755e-014 -2.44505e-014
rhumerus -45.4634 12.0399 -67.0146
rradius 57.6862
rwrist -2.3691
rhand -34.5251 26.0982
rfingers 7.12502
rthumb -7.68638 -3.74211
lclavicle 3.46755e-014 -2.44505e-014
lhumerus -33.1209 -2.30443 81.0362
lradius 24.9861
lwrist 28.8623
lhand -18.742 -292.265
lfingers 7.12502
lthumb -172.446 -277.58
rfemur 7.41978 -6.11729 17.8069
rtibia -2.54444e-014
rfoot -8.16012 -17.8717
rtoes -49.9104
lfemur -10.0758 -16.1287 -6.56174
ltibia 20.7555
lfoot -16.5815 0.73809
ltoes -62.5117
